<svg xmlns="http://www.w3.org/2000/svg" width="32px" height="32px"  viewBox="0 0 24 24"><g>
                <path d="M19.44,10.94h-1.51v-6.4c0-0.64-1-0.64-1,0v6.4H7.06V7c0-0.64-1-0.65-1,0v3.94h-1.5
                    c-1.37,0-2.5,1.12-2.5,2.5v4c0,1.37,1.13,2.5,2.5,2.5h14.88c1.38,0,2.5-1.13,2.5-2.5v-4C21.94,12.06,20.82,10.94,19.44,10.94z
                    M20.94,17.44c0,0.82-0.67,1.5-1.5,1.5H4.56c-0.82,0-1.5-0.68-1.5-1.5v-4c0-0.83,0.68-1.5,1.5-1.5h14.88c0.83,0,1.5,0.67,1.5,1.5
                    V17.44z"/>
                <circle cx="4.75" cy="15.436" r="0.75"/>
                <circle cx="8.25" cy="15.436" r="0.75"/>
                <path d="M18.5,16.936h-4.999c-0.827,0-1.5-0.673-1.5-1.5s0.673-1.5,1.5-1.5H18.5c0.827,0,1.5,0.673,1.5,1.5
                    S19.328,16.936,18.5,16.936z M13.501,14.936c-0.276,0-0.5,0.225-0.5,0.5s0.224,0.5,0.5,0.5H18.5c0.276,0,0.5-0.225,0.5-0.5
                    s-0.224-0.5-0.5-0.5H13.501z"/>
            </g></svg>